<?xml version="1.0" encoding="utf-8"?>
<!-- Generator: Adobe Illustrator 18.0.0, SVG Export Plug-In . SVG Version: 6.00 Build 0)  -->
<!DOCTYPE svg PUBLIC "-//W3C//DTD SVG 1.1//EN" "http://www.w3.org/Graphics/SVG/1.1/DTD/svg11.dtd">
<svg version="1.1" id="Слой_1" xmlns="http://www.w3.org/2000/svg" xmlns:xlink="http://www.w3.org/1999/xlink" x="0px" y="0px"
	 viewBox="0 0 300 79" enable-background="new 0 0 300 79" xml:space="preserve">
<path fill="#FFFFFF" d="M23,47.2h6.5l14-19.5v29.9h9.1V12.2h-9.1L26.3,36.8L9.1,12.2H0v45.4h9.1V27.8L23,47.2z"/>
<path fill="#FFFFFF" d="M88.9,57.6v-7.8h-9.1V20h9.1v-7.8H61.7V20h9.1v29.9h-9.1v7.8H88.9z"/>
<path fill="#FFFFFF" d="M131.8,43.3l-25-31.2H98v45.4h9.1V26.5l25,31.2h8.8V12.2h-9.1V43.3z"/>
<path fill="#FFFFFF" d="M177.2,57.6v-7.8h-9.1V20h9.1v-7.8h-27.3V20h9.1v29.9h-9.1v7.8H177.2z"/>
<path fill="#FFFFFF" d="M195.4,38.8h8.8l14.3,18.8h11l-17.8-23.4l16.6-22.1h-11l-14,18.8h-7.8V12.2h-9.1v45.4h9.1V38.8z"/>
<path fill="#FFFFFF" d="M260.3,57.6v-7.8h-9.1V20h9.1v-7.8H233V20h9.1v29.9H233v7.8H260.3z"/>
<path fill-rule="evenodd" clip-rule="evenodd" fill="#FFFFFF" d="M284.9,39c8.3,0,15.1,6.8,15.1,15.1c0,8.3-6.8,15.1-15.1,15.1
	c-8.3,0-15.1-6.8-15.1-15.1C269.8,45.8,276.5,39,284.9,39z"/>
<path fill="#11181D" d="M283.5,54.5l0.9-0.7v-2.2l-1.5-1.4h-6.9v9.4h7.4l1.5-1.4v-2.3L283.5,54.5z M282.5,57.9h-4.6v-2.3h4.4
	l0.7,0.7v1.2L282.5,57.9z M282.5,52.2v1.1l-0.7,0.7h-4v-2.2h4.2L282.5,52.2z"/>
<path fill="#11181D" d="M289.4,59.5h1.9v-3.1l4.1-6.3h-2.1l-2.9,4.4l-2.9-4.4h-2.1l4.1,6.3V59.5z"/>
</svg>
